<svg id="Layer_1" data-name="Layer 1" xmlns="http://www.w3.org/2000/svg" viewBox="0 0 129.79 129.66"><defs><style>.cls-1{fill:#ef4682;}</style></defs><title>globe</title><path class="cls-1" d="M255.1,441l6.23,0a64.88,64.88,0,0,0,0-129.64l-6.17,0-.06,0a64.89,64.89,0,0,0,0,129.6Zm-39.19-22.84a72.65,72.65,0,0,1,13.27-7.63,77.79,77.79,0,0,0,18.48,24.53A60,60,0,0,1,215.91,418.18Zm40.15,17.31a74.23,74.23,0,0,1-22.21-26.82,74.87,74.87,0,0,1,22.21-4.42Zm0-36.25a80.17,80.17,0,0,0-24.24,4.83,74.37,74.37,0,0,1-5.18-23.2l29.42,0Zm0-23.41-29.57,0a74.42,74.42,0,0,1,4-24,78.74,78.74,0,0,0,25.53,5.41Zm12.57,59.41a77.49,77.49,0,0,0,19.09-25.6A73,73,0,0,1,302,417.39,59.83,59.83,0,0,1,268.63,435.24Zm36.69-21.64A77.28,77.28,0,0,0,289.66,405a79.34,79.34,0,0,0,5.18-24.19h23.42A59.27,59.27,0,0,1,305.32,413.6Zm1.88-72.28a59.39,59.39,0,0,1,11.25,34.48H295a79.64,79.64,0,0,0-4.11-25A78.93,78.93,0,0,0,307.2,341.32Zm-3.1-3.94a74.05,74.05,0,0,1-15,8.75,78.42,78.42,0,0,0-20.53-28.92A59.54,59.54,0,0,1,304.1,337.38Zm-43-19.9a73.64,73.64,0,0,1,23.4,30.5,73.44,73.44,0,0,1-23.4,4.31Zm0,42.24a89.39,89.39,0,0,0,25.13-4A57.63,57.63,0,0,1,290,375.82H261.08Zm0,21.13,28.73,0A74.13,74.13,0,0,1,285,403.28a80,80,0,0,0-23.87-4.1Zm0,23.34a74.74,74.74,0,0,1,21.9,3.72A74.1,74.1,0,0,1,261.08,435Zm-5-87.23v35.27a73.86,73.86,0,0,1-23.73-5.07A73.67,73.67,0,0,1,256.06,317Zm-8.39.4a78.46,78.46,0,0,0-19.94,27.79,73.26,73.26,0,0,1-13.92-8.63A59.75,59.75,0,0,1,247.67,317.36Zm-37,23.05a78.45,78.45,0,0,0,15.27,9.43,80,80,0,0,0-4.43,26H198.7A59.17,59.17,0,0,1,210.63,340.41Zm-11.74,40.47h22.73A78.85,78.85,0,0,0,227.17,406a77.49,77.49,0,0,0-14.64,8.49A59.19,59.19,0,0,1,198.89,380.88Z" transform="translate(-193.67 -311.38)"/></svg>