<svg id="Layer_1" data-name="Layer 1" xmlns="http://www.w3.org/2000/svg" viewBox="0 0 154.34 150.58"><defs><style>.cls-1{fill:#f8b231;}.cls-2{fill:#feeccc;}</style></defs><title>login</title><path class="cls-1" d="M329,424.47l73.48,2.77A73.85,73.85,0,0,1,329,498c-40.34,0-73.53-33.19-73.53-73.53S288.68,351,329,351s73.53,33.19,73.53,73.52Z" transform="translate(-255.49 -347.42)"/><circle class="cls-2" cx="80.81" cy="73.53" r="73.53"/><polygon class="cls-1" points="54.73 116.71 117.57 116.71 117.57 30.34 54.73 30.34 54.73 38.82 108.76 38.82 108.76 108.64 54.73 108.64 54.73 116.71"/><path class="cls-1" d="M271.77,421.09h0a2.38,2.38,0,0,0,2,2.61l51.15-1-13.74,17.59a3.15,3.15,0,0,0,0,3.67l.6.76a1.75,1.75,0,0,0,2.89,0l17.69-22.61a3.17,3.17,0,0,0,0-3.69l-16.63-21.25a1.75,1.75,0,0,0-2.89,0l-.63.81a3.18,3.18,0,0,0-.07,3.61l12.69,16.21-51.13.68A2.39,2.39,0,0,0,271.77,421.09Z" transform="translate(-255.49 -347.42)"/></svg>