<svg id="Layer_1" data-name="Layer 1" xmlns="http://www.w3.org/2000/svg" viewBox="0 0 150.77 174.72"><defs><style>.cls-1{font-size:160.74px;font-family:MyriadPro-Regular, Myriad Pro;}.cls-1,.cls-2{fill:#74c15e;}</style></defs><title>logo</title><text class="cls-1" transform="translate(30.84 134.54) scale(1.11 1)">e</text><polygon class="cls-2" points="99.34 21.66 150.72 21.66 150.72 69.64 142.3 69.64 142.3 30.32 99.34 30.32 99.34 21.66"/><polygon class="cls-2" points="0.05 71.34 0.05 19.96 48.03 19.96 48.03 28.38 8.71 28.38 8.71 71.34 0.05 71.34"/><polygon class="cls-2" points="51.38 171.99 0 171.88 0.1 123.91 8.53 123.92 8.44 163.24 51.4 163.33 51.38 171.99"/><polygon class="cls-2" points="150.77 120.72 150.66 172.1 102.69 172 102.7 163.57 142.02 163.66 142.11 120.7 150.77 120.72"/></svg>